<svg width="532" height="87" viewBox="0 0 532 87" fill="none" xmlns="http://www.w3.org/2000/svg">
<path d="M20.5 27.5C25.3 18.7 21 13.3634 19 11.5L8 1H40.5C40.5 1 41.4 1.1 47 7.5C52.6 13.9 51.3333 22.5 50 26L32 60H1C5.5 52.8333 15.7 36.3 20.5 27.5Z" fill="#EC2329" stroke="#EC2329"/>
<path d="M66.6426 58.3635C61.8426 67.1635 66.1426 72.5001 68.1426 74.3635L79.1426 84.8635L46.6426 84.8635C46.6426 84.8635 45.7426 84.7635 40.1426 78.3635C34.5426 71.9635 35.8092 63.3635 37.1426 59.8635L55.1426 25.8635L86.1426 25.8635C81.6426 33.0302 71.4426 49.5635 66.6426 58.3635Z" fill="#EC2329" stroke="#EC2329"/>
<path d="M183.146 17.306V72H166.418V50.926H128.698V72H112.052V17.306H128.698V37.314H166.418V17.306H183.146ZM270.643 17.306L239.893 52.976V72H223.165V52.976L191.923 17.306H212.915L231.447 39.856L249.815 17.306H270.643ZM323.697 17.306C331.952 17.306 337.665 18.6453 340.835 21.324C344.061 24.0027 345.673 29.3873 345.673 37.478C345.673 45.1313 344.416 50.5433 341.901 53.714C339.441 56.83 334.248 58.388 326.321 58.388H322.057H296.063V72H279.417V17.306H323.697ZM328.863 38.052C328.863 34.9907 328.207 32.9953 326.895 32.066C325.583 31.082 323.287 30.59 320.007 30.59H296.063V45.104H320.253C323.424 45.104 325.638 44.6667 326.895 43.792C328.207 42.8627 328.863 40.9493 328.863 38.052ZM418.421 17.306V29.77H374.059V39.118H415.469V49.942H374.059V59.618H418.421V72H357.413V17.306H418.421ZM481.607 17.306C488.167 17.306 492.841 18.5907 495.629 21.16C498.471 23.6747 499.893 28.1573 499.893 34.608C499.893 37.068 499.756 39.1727 499.483 40.922C499.209 42.6713 498.663 44.202 497.843 45.514C497.023 46.7713 496.066 47.728 494.973 48.384C493.879 48.9853 491.583 49.86 488.085 51.008C491.911 51.5 494.727 52.484 496.531 53.96C498.335 55.3813 499.237 57.896 499.237 61.504V72H482.345V66.752C482.345 64.0733 482.099 61.9413 481.607 60.356C481.169 58.7707 479.01 57.978 475.129 57.978H447.331V72H430.685V17.306H481.607ZM474.637 44.694C478.409 44.694 480.759 44.2293 481.689 43.3C482.618 42.3707 483.083 40.2933 483.083 37.068C483.083 35.264 482.891 33.9247 482.509 33.05C482.181 32.1753 481.443 31.574 480.295 31.246C479.201 30.918 478.299 30.7267 477.589 30.672C476.878 30.6173 476.031 30.59 475.047 30.59H473.735H447.331V44.694H472.505H474.637Z" fill="white"/>
</svg>
